<svg xmlns="http://www.w3.org/2000/svg" xmlns:xlink="http://www.w3.org/1999/xlink" x="0px" y="0px"
	 viewBox="0 0 264.8 52" style="enable-background:new 0 0 264.8 52;" xml:space="preserve">
<style type="text/css"> .logo_light { fill:#F8955B;} .logo_color { fill:#FFFFFF; } </style>
	<path class="logo_light" d="M263.4,1v9.8h-13.3v40.4h-12.2V10.8h-13.3V1H263.4z"/>
	<path class="logo_color" d="M212.8,51.7c-2.1,0-3.9-0.6-5.3-1.9c-1.3-1.3-2-2.9-2-4.7c0-1.9,0.7-3.5,2-4.8c1.4-1.3,3.1-1.9,5.3-1.9
		c2.1,0,3.8,0.6,5.1,1.9c1.4,1.3,2.1,2.9,2.1,4.8c0,1.9-0.7,3.4-2.1,4.7C216.6,51.1,214.9,51.7,212.8,51.7z"/>
	<path class="logo_color" d="M185.7,42.3h-18.7l-3,8.9h-12.8L169.3,1h14.2l18.2,50.2h-12.9L185.7,42.3z M182.5,32.9l-6.2-18.4l-6.1,18.4
		H182.5z"/>
	<path class="logo_color" d="M140,51.7c-2.1,0-3.9-0.6-5.3-1.9c-1.3-1.3-2-2.9-2-4.7c0-1.9,0.7-3.5,2-4.8c1.4-1.3,3.1-1.9,5.3-1.9
		c2.1,0,3.8,0.6,5.1,1.9c1.4,1.3,2.1,2.9,2.1,4.8c0,1.9-0.7,3.4-2.1,4.7C143.8,51.1,142.1,51.7,140,51.7z"/>
	<path class="logo_light" d="M101.8,51.7c-4.7,0-9.1-1.1-13-3.3c-3.9-2.2-7-5.2-9.4-9.1c-2.3-4-3.4-8.4-3.4-13.3s1.1-9.3,3.4-13.2
		c2.3-3.9,5.5-7,9.4-9.1c4-2.2,8.3-3.3,13-3.3s9,1.1,12.9,3.3c4,2.2,7.1,5.2,9.3,9.1c2.3,3.9,3.4,8.3,3.4,13.2s-1.1,9.3-3.4,13.3
		c-2.3,3.9-5.4,7-9.3,9.1C110.8,50.6,106.5,51.7,101.8,51.7z M101.8,40.5c4,0,7.2-1.3,9.6-4c2.4-2.7,3.6-6.2,3.6-10.6
		c0-4.4-1.2-8-3.6-10.6c-2.4-2.7-5.6-4-9.6-4c-4.1,0-7.3,1.3-9.7,3.9c-2.4,2.6-3.6,6.2-3.6,10.6c0,4.4,1.2,8,3.6,10.6
		C94.5,39.2,97.7,40.5,101.8,40.5z"/>
	<path class="logo_color" d="M63.6,51.7c-2.1,0-3.9-0.6-5.3-1.9c-1.3-1.3-2-2.9-2-4.7c0-1.9,0.7-3.5,2-4.8c1.4-1.3,3.1-1.9,5.3-1.9
		c2.1,0,3.8,0.6,5.1,1.9c1.4,1.3,2.1,2.9,2.1,4.8c0,1.9-0.7,3.4-2.1,4.7C67.4,51.1,65.7,51.7,63.6,51.7z"/>
	<path class="logo_color" d="M36.8,16.9c-0.9-1.7-2.2-2.9-3.9-3.8c-1.7-0.9-3.6-1.4-5.9-1.4c-4,0-7.1,1.3-9.5,3.9c-2.4,2.6-3.6,6-3.6,10.4
		c0,4.6,1.2,8.2,3.7,10.9c2.5,2.6,6,3.9,10.4,3.9c3,0,5.5-0.8,7.6-2.3c2.1-1.5,3.6-3.7,4.6-6.6H24.5v-9h26.6v11.4
		c-0.9,3-2.5,5.9-4.6,8.5c-2.1,2.6-4.9,4.7-8.2,6.4c-3.3,1.6-7.1,2.4-11.3,2.4c-5,0-9.4-1.1-13.3-3.2c-3.9-2.2-6.9-5.2-9.1-9.1
		C2.4,35.4,1.4,31,1.4,26s1.1-9.4,3.2-13.2c2.2-3.9,5.2-6.9,9.1-9.1c3.9-2.2,8.3-3.3,13.2-3.3c6,0,11.1,1.5,15.2,4.4
		c4.1,2.9,6.9,6.9,8.2,12.1H36.8z"/>
</svg>
